<svg width="25" height="11" viewBox="0 0 25 11" fill="none" xmlns="http://www.w3.org/2000/svg">
<path d="M19.5631 3.73852L16.6653 2.96206L16.3117 2.34969L16.9241 1.99614L16.5706 1.38376L17.1829 1.03021L16.8294 0.417837L17.4417 0.0642843L20.3395 0.840741C23.0069 1.55545 24.5898 4.29714 23.8751 6.96447C23.1603 9.6318 20.4187 11.2147 17.7513 10.5L14.8536 9.72354L14.5 9.11117L15.1124 8.75762L14.7588 8.14524L15.3712 7.79169L15.0176 7.17932L15.63 6.82577L18.5278 7.60222C19.5947 7.88811 20.6914 7.25494 20.9773 6.18801C21.2632 5.12108 20.63 4.0244 19.5631 3.73852Z" fill="#E1E6E8"/>
<path d="M5.51888 7.53794L8.41666 6.76148L9.02903 7.11503L8.67548 7.72741L9.28785 8.08096L8.93429 8.69333L9.54667 9.04689L9.19311 9.65926L6.29534 10.4357C3.62801 11.1504 0.886321 9.56751 0.171612 6.90018C-0.543097 4.23285 1.03982 1.49117 3.70715 0.776458L6.60492 0L7.21729 0.353554L6.86374 0.965926L7.47611 1.31948L7.12256 1.93185L7.73493 2.28541L7.38138 2.89778L4.4836 3.67424C3.41667 3.96012 2.78351 5.05679 3.06939 6.12373C3.35527 7.19066 4.45195 7.82382 5.51888 7.53794Z" fill="#E1E6E8"/>
</svg>
